/* XPM */
static char *start_semi_solid_xpm[] = {
"24 24 2 1",
" 	c None",
"1	c #F1F7FC",
"                        ",
" 111111111    111111111 ",
" 1111111111  1111111111 ",
" 1111111111111111111111 ",
" 111      1111      111 ",
" 111       111      111 ",
" 111       11       111 ",
" 111       11       111 ",
" 111       11       111 ",
" 111       11       111 ",
"  1111     11      111  ",
"   111111111111111111   ",
"   111111111111111111   ",
"  111      11     1111  ",
" 111       11       111 ",
" 111       11       111 ",
" 111       11       111 ",
" 111       11       111 ",
" 111      111       111 ",
" 111      1111      111 ",
" 1111111111111111111111 ",
" 1111111111  1111111111 ",
" 111111111    111111111 ",
"                        "
};
