/* XPM */
static char *closeA_xpm[] = {
"12 44 26 1",
" 	c None",
"B	c #000000",
"C	c #565656",
"D	c #4E4E4E",
"E	c #353535",
"F	c #363636",
"G	c #373737",
"H	c #383838",
"I	c #2F2F2F",
"J	c #2D2D2D",
"K	c #C8C8C8",
"L	c #2E2E2E",
"M	c #C1C1C1",
"N	c #C0C0C0",
"O	c #C6C6C6",
"P	c #BEBEBE",
"Q	c #343434",
"R	c #C4C4C4",
"S	c #C7C7C7",
"T	c #333333",
"U	c #C2C2C2",
"V	c #BABABA",
"W	c #B8B8B8",
"X	c #B9B9B9",
"Y	c #323232",
"Z	c #303030",
"BBBBBBBBBBBB",
"BBBBBBBBBBBB",
"BBBBBBBBBBBB",
"BBBBBBBBBBBB",
"BBBBBBBBBBBB",
"BBBBBBBBBBBB",
"BBKKIBBLMNBB",
"BBKOKLLKKPBB",
"BBIKRKSKRJBB",
"BBBIKUKKJBBB",
"BBBIKKKKJBBB",
"BBIKKKKKKJBB",
"BBKKKBBKKVBB",
"BBKKIBBLWXBB",
"BBBBBBBBBBBB",
"BBBBBBBBBBBB",
"BBBBBBBBBBBB",
"BBBBBBBBBBBB",
"BBBBBBBBBBBB",
"BBBBBBBBBBBB",
"BBBBBBBBBBBB",
"BBBBBBBBBBBB",
"BBBBBBBBBBBB",
"BBBBBBBBBBBB",
"BBBBBBBBBBBB",
"BBBBBBBBBBBB",
"BBBBBBBBBBBB",
"BBBBBBBBBBBB",
"BBKKIBBLMNBB",
"BBKOKLLKKPBB",
"BBIKRKSKRJBB",
"BBBIKUKKJBBB",
"BBBIKKKKJBBB",
"BBIKKKKKKJBB",
"BBKKKLLKKVBB",
"BBKKIBBLWXBB",
"BBBBBBBBBBBB",
"BBBBBBBBBBBB",
"BBBBBBBBBBBB",
"BBBBBBBBBBBB",
"BBBBBBBBBBBB",
"BBBBBBBBBBBB",
"BBBBBBBBBBBB",
"BBBBBBBBBBBB"
};
